<?xml version="1.0" encoding="UTF-8"?>
<svg enable-background="new 0 0 413.9 29.7" version="1.1" viewBox="0 0 413.9 29.7" xml:space="preserve" xmlns="http://www.w3.org/2000/svg">
<style type="text/css">
	.st0{fill:#fff}
</style>

	<path class="st0" d="m19.2 17-11.6-16.5h-7.6v28.7h7.4v-17.4l12.1 17.3h7.1v-28.6h-7.4v16.5zm55.1-16.5h-9.1l-8.8 11.8v-11.8h-7.4v28.7h7.4v-8.4l1.9-2.4 7.5 10.8h9.1l-11.7-15.3 11.1-13.4zm34.4 0h-14.4v28.7h7.4v-9.7h7c6.4 0 10-4.3 10-9.4 0-5.3-3.5-9.6-10-9.6zm-1 12.7h-6v-6.5h6c2 0 3.4 1.3 3.4 3.3 0.1 1.9-1.4 3.2-3.4 3.2zm45.9 11.1-9.8-23.8h-3.7v28.7h2.5v-25.5l10.5 25.5h0.9l10.4-25.5v25.5h2.5v-28.7h-3.7l-9.6 23.8zm37.7 4.9h18.2v-2.2h-15.7v-11.4h15.4v-2.2h-15.4v-10.7h15.7v-2.2h-18.2v28.7zm50.7-28.7h-9.2v28.7h9.2c8.9 0 14.5-6.4 14.5-14.3-0.1-7.9-5.6-14.4-14.5-14.4zm0 26.4h-6.7v-24.2h6.7c7.6 0 11.9 5.4 11.9 12.1s-4.4 12.1-11.9 12.1zm37.8 2.3h2.5v-28.7h-2.5v28.7zm40.1-27c3.5 0 6.7 1.7 8.5 4.2l2.1-1.3c-2.5-3.1-5.9-5.1-10.6-5.1-8 0-14.4 6-14.4 14.8s6.4 14.8 14.4 14.8c4.6 0 8-2 10.5-5.1l-2.1-1.3c-1.8 2.5-4.9 4.2-8.5 4.2-6.7 0-11.9-5.2-11.9-12.6 0.1-7.4 5.4-12.6 12-12.6zm41.5-1.7-11.7 28.7h2.8l2.9-7.1h15.3l2.9 7.1h2.8l-12-28.7h-3zm-5.4 19.4 6.8-17 6.9 17h-13.7zm44 7v-26.4h-2.5v28.7h16.3v-2.2h-13.8z"/>

</svg>
